<?xml version="1.0" standalone="no"?>
<!DOCTYPE svg PUBLIC "-//W3C//DTD SVG 20010904//EN"
 "http://www.w3.org/TR/2001/REC-SVG-20010904/DTD/svg10.dtd">
<svg version="1.0" xmlns="http://www.w3.org/2000/svg"
 width="99.000000pt" height="99.000000pt" viewBox="0 0 99.000000 99.000000"
 preserveAspectRatio="xMidYMid meet">
<metadata>
Created by potrace 1.11, written by Peter Selinger 2001-2013
</metadata>
<g transform="translate(0.000000,99.000000) scale(0.100000,-0.100000)"
fill="#000000" stroke="none">
<path d="M307 789 c-9 -6 -17 -7 -17 -4 0 10 -54 -22 -74 -44 -11 -12 -29 -21
-40 -21 -30 0 -50 -34 -34 -59 13 -22 -2 -43 -40 -55 -31 -10 -42 -37 -49
-114 -6 -72 0 -84 44 -94 13 -4 24 0 27 8 8 20 35 17 43 -3 4 -10 12 -22 20
-26 7 -4 13 -15 13 -22 0 -8 5 -15 11 -15 6 0 22 -9 35 -19 57 -45 157 -33
220 25 76 72 100 208 55 311 -24 54 -82 116 -116 121 -11 2 -26 9 -32 14 -9 8
-13 7 -13 -3 0 -9 -3 -10 -8 -4 -10 14 -24 15 -45 4z"/>
<path d="M529 413 c-1 -5 -1 -11 0 -16 1 -4 -6 -24 -15 -45 -10 -20 -16 -41
-15 -47 1 -5 0 -24 -4 -42 -4 -22 -12 -33 -23 -33 -39 0 -57 -55 -27 -80 13
-10 19 -10 35 5 11 10 20 24 20 32 0 8 12 13 35 13 23 0 35 5 35 14 0 8 -10
13 -27 12 -26 -1 -28 2 -25 34 2 19 10 40 19 47 9 7 12 19 8 32 -9 29 3 62 22
59 9 -2 18 3 20 10 3 8 -6 12 -26 12 -17 0 -32 -3 -32 -7z m-51 -225 c-6 -18
-28 -21 -28 -4 0 9 7 16 16 16 9 0 14 -5 12 -12z"/>
<path d="M720 360 c0 -5 5 -10 10 -10 6 0 10 5 10 10 0 6 -4 10 -10 10 -5 0
-10 -4 -10 -10z"/>
<path d="M667 350 c-16 -45 -17 -70 -2 -70 9 0 13 -4 10 -10 -3 -5 -15 -10
-26 -10 -16 0 -19 7 -19 39 0 34 -3 40 -20 38 -22 -1 -45 -54 -37 -84 3 -16 5
-16 11 2 21 55 25 60 21 23 -3 -38 -3 -38 34 -38 20 0 42 5 49 12 9 9 12 9 12
-1 0 -9 9 -12 25 -9 14 3 28 1 31 -3 3 -5 -2 -9 -10 -9 -8 0 -20 -9 -26 -19
-13 -25 -13 -27 6 -46 12 -12 19 -13 30 -4 8 6 14 16 14 22 0 5 8 16 18 24 12
10 14 16 4 19 -6 3 -10 10 -7 14 3 5 8 26 11 48 4 31 2 41 -12 46 -20 8 -43
-19 -44 -51 0 -13 -5 -23 -10 -23 -6 0 -8 16 -4 42 5 30 4 39 -4 34 -7 -4 -12
-16 -12 -27 0 -33 -17 -21 -28 19 -6 23 -11 31 -15 22z m104 -71 c-9 -22 -10
-22 -10 -3 -1 11 2 24 6 27 12 12 14 0 4 -24z m-16 -89 c-3 -5 -10 -10 -16
-10 -5 0 -9 5 -9 10 0 6 7 10 16 10 8 0 12 -4 9 -10z"/>
<path d="M820 320 c-8 -15 -14 -57 -10 -75 1 -5 10 8 21 30 16 33 21 26 8 -10
-2 -5 1 -11 6 -12 6 -2 16 12 22 30 l13 32 -3 -35 -2 -35 52 -3 c28 -1 54 2
58 8 3 5 1 10 -5 10 -7 0 -9 13 -6 35 4 26 2 37 -9 41 -18 7 -44 -17 -48 -47
-2 -13 -9 -25 -15 -27 -9 -3 -10 3 -4 20 14 40 5 55 -34 54 -21 -1 -39 -7 -44
-16z m132 -36 c-3 -17 -7 -22 -12 -13 -9 13 -2 39 10 39 4 0 5 -12 2 -26z"/>
</g>
</svg>
